<?xml version="1.0" encoding="utf-8"?>
<!-- Generator: Adobe Illustrator 16.0.3, SVG Export Plug-In . SVG Version: 6.00 Build 0)  -->
<!DOCTYPE svg PUBLIC "-//W3C//DTD SVG 1.1//EN" "http://www.w3.org/Graphics/SVG/1.1/DTD/svg11.dtd">
<svg version="1.1" id="Layer_1" xmlns="http://www.w3.org/2000/svg" xmlns:xlink="http://www.w3.org/1999/xlink" x="0px" y="0px"
	 width="271.432px" height="60.756px" viewBox="112.318 32.135 271.432 60.756"
	 enable-background="new 112.318 32.135 271.432 60.756" xml:space="preserve">
<title>Artboard 5</title>
<path d="M112.318,48.077c8.805,0.021,15.96-7.1,15.981-15.904c0-0.013,0-0.025,0-0.038h-15.981V48.077z"/>
<path d="M238.177,63.264h15.943V47.322C245.314,47.322,238.177,54.459,238.177,63.264z"/>
<path d="M112.318,63.264v28.86h15.981V47.322c-8.805-0.021-15.96,7.1-15.981,15.904C112.318,63.239,112.318,63.251,112.318,63.264z"
	/>
<rect x="220.711" y="47.322" width="15.187" height="44.803"/>
<path d="M290.372,71.815c0,5.171-2.872,8.915-8.301,8.915c-5.43,0-6.98-3.926-6.98-8.723V47.322h-15.092v28.803
	c0,4.883,0.47,8.426,3.965,12.074c3.398,3.447,7.66,4.692,12.352,4.692c5.746,0,10.477-1.724,14.057-6.416v5.659h15.178V47.322
	h-15.178V71.815z"/>
<path d="M163.862,46.565c-5.745,0-10.475,1.724-14.057,6.416v-5.659h-15.187v44.803h15.177V67.64c0-5.17,2.873-8.904,8.302-8.904
	s6.98,3.926,6.98,8.723v24.666h15.091V63.331c0-4.884-0.469-8.426-3.964-12.074C172.815,47.81,168.573,46.565,163.862,46.565z"/>
<path d="M204.902,32.135H190.54v15.187h-6.511v12.151h6.511v18.365c0,4.414,0.163,7.66,2.011,10.408
	c2.873,4.232,9.25,4.567,13.922,4.635c2.669-0.002,5.327-0.343,7.909-1.016V81.381c0,0-3.409,0.249-5.908,0.249
	c-3.62,0-3.62-2.385-3.524-5.209v-16.92h9.46v-12.18h-9.508V32.135z"/>
<path d="M381.415,52.329c-2.604-3.878-7.354-5.745-11.922-5.745c-5.911-0.202-11.445,2.897-14.363,8.043
	c-3.351-5.678-7.918-8.043-14.362-8.043c-5.745,0-9.499,1.915-13.597,5.956v-5.219h-15.225v44.803h15.225V68.943
	c0-2.174,0-5.295,1.024-7.287c1.148-2.125,3.331-3.489,5.745-3.591c4.932,0,6.521,4.443,6.521,8.618v25.441h14.898V68.943
	c0-2.27,0-4.539,1.025-6.626c1.152-2.389,3.57-3.906,6.223-3.907c5.957,0,6.244,6.147,6.244,10.601v23.114h14.898V62.24
	C383.741,58.86,383.368,55.269,381.415,52.329z"/>
</svg>
