<?xml version="1.0" encoding="utf-8"?>
<!-- Generator: Adobe Illustrator 22.0.1, SVG Export Plug-In . SVG Version: 6.00 Build 0)  -->
<svg version="1.1" id="Layer_1" xmlns="http://www.w3.org/2000/svg" xmlns:xlink="http://www.w3.org/1999/xlink" x="0px" y="0px"
	 viewBox="0 0 100 100" style="enable-background:new 0 0 100 100;" xml:space="preserve">
<style type="text/css">
	.st0{fill:#FFFFFF;}
</style>
<g>
	<g>
		<g>
			<g>
				<path class="st0" d="M51,54.5c-4,0-7.3,3.7-7.3,8.3c0,4.6,3.3,8.3,7.3,8.3c4,0,7.3-3.7,7.3-8.3C58.3,58.2,55,54.5,51,54.5z
					 M51,66.3c-1.7,0-3.1-1.6-3.1-3.5c0-1.9,1.4-3.5,3.1-3.5s3.1,1.6,3.1,3.5C54.1,64.7,52.7,66.3,51,66.3z"/>
				<path class="st0" d="M74.1,55.1L68.4,44c-0.4-0.7-1-1.2-1.7-1.5c-0.7-0.2-1.5-0.1-2.1,0.3l-3.9,2.6c-0.4-0.3-0.9-0.6-1.3-0.9
					v-5.1c0-1.7-1.2-3.1-2.8-3.1H45.3c-1.5,0-2.8,1.4-2.8,3.1v5.1c-0.4,0.2-0.8,0.5-1.1,0.7l-3.9-2.6c-0.6-0.4-1.4-0.5-2.1-0.3
					c-0.7,0.2-1.3,0.7-1.7,1.4l-5.8,11c-0.8,1.5-0.3,3.4,1,4.3l3.9,2.6c0,0.4,0,0.7,0,1.1c0,0.3,0,0.6,0,0.9l-3.9,2.6
					c-0.6,0.4-1.1,1.1-1.3,1.9c-0.2,0.8-0.1,1.7,0.3,2.4l5.7,11.1c0.8,1.5,2.5,2,3.8,1.1l3.9-2.6c0.4,0.3,0.9,0.6,1.3,0.9v5.1
					c0,1.7,1.2,3.1,2.8,3.1h11.3c1.5,0,2.8-1.4,2.8-3.1V81c0.4-0.2,0.8-0.5,1.1-0.7l3.9,2.6c1.3,0.9,3,0.4,3.8-1.1l5.8-11
					c0.8-1.5,0.3-3.4-1-4.3l-3.9-2.6c0-0.4,0-0.7,0-1.1c0-0.3,0-0.6,0-0.9l3.9-2.5C74.4,58.5,74.9,56.6,74.1,55.1z M63.5,60.7
					c0.1,0.8,0.2,1.5,0.2,2.1c0,0.7-0.1,1.4-0.2,2.3c-0.2,1.3,0.3,2.5,1.3,3.2l3,2l-3,5.6l-3-2c-1-0.7-2.2-0.6-3.1,0.2
					c-0.9,0.8-2,1.5-3.1,2c-1.1,0.5-1.7,1.6-1.7,2.9v4h-5.8v-4c0-1.3-0.7-2.4-1.8-2.9c-1.2-0.5-2.3-1.2-3.2-2.1
					c-0.9-0.8-2.1-0.9-3.1-0.3l-3.1,2L34,70l3.1-2c1-0.6,1.5-1.9,1.4-3.2c-0.1-0.8-0.2-1.5-0.2-2.1c0-0.7,0.1-1.4,0.2-2.3
					c0.2-1.3-0.4-2.5-1.3-3.2l-3-2l2.9-5.6l3,2c1,0.7,2.2,0.6,3.1-0.2c1-0.8,2-1.5,3.1-2c1.1-0.5,1.8-1.6,1.8-2.9v-4h5.8v4
					c0,1.3,0.7,2.4,1.8,2.9c1.2,0.5,2.2,1.2,3.2,2.1c0.9,0.8,2.1,0.9,3.1,0.3l3.1-2l2.9,5.6l-3.1,2C63.9,58.2,63.3,59.4,63.5,60.7z"
					/>
				<path class="st0" d="M29.4,19h0.2c1.5,0,2.8-1.4,2.8-3.1c0-1.7-1.2-3.1-2.8-3.1h-0.2c-1.5,0-2.8,1.4-2.8,3.1
					C26.6,17.6,27.8,19,29.4,19z"/>
				<path class="st0" d="M16.8,19H17c1.5,0,2.8-1.4,2.8-3.1c0-1.7-1.2-3.1-2.8-3.1h-0.2c-1.5,0-2.8,1.4-2.8,3.1
					C14,17.6,15.2,19,16.8,19z"/>
				<path class="st0" d="M41.9,19h0.2c1.5,0,2.8-1.4,2.8-3.1c0-1.7-1.2-3.1-2.8-3.1h-0.2c-1.5,0-2.8,1.4-2.8,3.1
					C39.2,17.6,40.4,19,41.9,19z"/>
				<path class="st0" d="M0,97.1c0,1.7,1.2,3.1,2.8,3.1h85.7c6.4,0,11.6-5.8,11.6-13V28.4v0v-25c0-1.7-1.2-3.1-2.8-3.1H2.8
					C1.2,0.3,0,1.7,0,3.4v25c0,0,0,0,0,0L0,97.1L0,97.1z M88.4,95.2h-84V31.6h91.1v55.7C95.5,91,91.7,95.2,88.4,95.2z M95.5,5.3v20
					H4.4v-20H95.5z"/>
			</g>
		</g>
	</g>
</g>
</svg>
