<?xml version="1.0" encoding="utf-8"?>
<!-- Generator: Adobe Illustrator 22.0.1, SVG Export Plug-In . SVG Version: 6.00 Build 0)  -->
<svg version="1.1" id="Mode_Isolation" xmlns="http://www.w3.org/2000/svg" xmlns:xlink="http://www.w3.org/1999/xlink" x="0px"
	 y="0px" viewBox="0 0 100 100" style="enable-background:new 0 0 100 100;" xml:space="preserve">
<style type="text/css">
	.st0{fill:#FFFFFF;}
</style>
<g>
	<path class="st0" d="M50,0.1c12.3,0,24.5,0.2,36.8-0.1C93.6-0.2,100,5.4,100,14.5c0,17.3,0,34.6,0,51.8c0,8.6-5.2,14.2-12.9,14.3
		c-10.5,0-21.1,0.1-31.6,0c-2,0-2.7,0.5-2.6,2.8c0.2,2.8,0.1,5.5,0,8.3c0,1.6,0.5,2.1,1.9,2.1c4.6-0.1,9.2,0,13.8,0
		c0.6,0,1.1,0,1.7,0c1.7,0.3,2.6,1.3,2.6,3.3c-0.1,1.8-1.1,2.8-2.7,2.9C66.6,100,63,100,59.4,100c-9.6,0-19.1,0-28.7,0
		c-1.6,0-2.9-0.3-3.5-2.2c-0.6-2.2,0.8-4,3.2-4.1c4.7,0,9.4-0.1,14,0.1c2.1,0.1,2.8-0.7,2.6-3c-0.2-2.5-0.1-5.1,0-7.6
		c0.1-2-0.5-2.6-2.3-2.6c-10.7,0.1-21.5,0-32.2,0c-5.2,0-9-2.6-11.2-7.8c-0.8-1.9-1.3-4.3-1.3-6.4C0,49,0,31.7,0.1,14.3
		c0-8.6,5.2-14.2,13-14.2C25.3,0,37.7,0.1,50,0.1z M49.9,58.8c14,0,28,0,41.9,0c1.7,0,2.4-0.4,2.4-2.5c-0.1-14.1,0-28.1-0.1-42.2
		c0-5-2.7-7.8-7.1-7.8c-24.7,0-49.4,0-74.2,0c-4.4,0-7.1,3-7.1,7.8c0,13.9,0,27.8,0,41.7c0,2.3,0.5,3,2.7,3
		C22.2,58.8,36.1,58.8,49.9,58.8z M50.1,65.2c-14,0-28,0-41.9,0c-2.3,0-2.6,0.4-2.3,3c0.4,3.6,3.3,6.2,7.1,6.2c12.5,0,24.9,0,37.4,0
		c12.3,0,24.5,0,36.8,0c3.8,0,6.6-2.5,7.1-6.3c0.3-2.6,0-2.9-2.3-2.9C77.9,65.2,64,65.2,50.1,65.2z"/>
</g>
</svg>
