<?xml version="1.0" encoding="utf-8"?>
<!-- Generator: Adobe Illustrator 21.1.0, SVG Export Plug-In . SVG Version: 6.00 Build 0)  -->
<svg version="1.1" id="Calque_1" xmlns="http://www.w3.org/2000/svg" xmlns:xlink="http://www.w3.org/1999/xlink" x="0px" y="0px"
	 viewBox="0 0 100 100" style="enable-background:new 0 0 100 100;" xml:space="preserve">
<style type="text/css">
	.st0{fill:#FFFFFF;}
</style>
<g id="surface1">
	<path class="st0" d="M92.5,27.1L92.5,27.1c0-1-0.1-2.1-0.1-3.2c-0.1-5.5-4.5-10.1-10-10.4C70.9,12.9,62,9.2,54.4,1.8l-0.1-0.1
		c-2.5-2.3-6.2-2.3-8.7,0l-0.1,0.1c-7.6,7.4-16.5,11.2-28,11.8c-5.5,0.3-9.9,4.9-10,10.4c0,1.1,0,2.1-0.1,3.1l0,0.2
		C7.3,39,7,53.6,11.9,66.8c2.7,7.3,6.7,13.6,12.1,18.8c6.1,5.9,14,10.6,23.6,14c0.3,0.1,0.6,0.2,1,0.3c0.5,0.1,0.9,0.1,1.4,0.1
		s0.9,0,1.4-0.1c0.3-0.1,0.7-0.2,1-0.3c9.6-3.4,17.5-8.1,23.6-14c5.3-5.2,9.4-11.5,12.1-18.8C93,53.5,92.7,38.9,92.5,27.1z
		 M82.6,64.8c-5.1,14-15.7,23.5-32.1,29.3c-0.1,0-0.1,0-0.2,0.1c-0.2,0-0.3,0-0.5,0c-0.1,0-0.1,0-0.2,0c-16.5-5.7-27-15.3-32.1-29.3
		c-4.5-12.2-4.2-25.6-4-37.4l0-0.1c0-1,0.1-2.1,0.1-3.2c0-2.4,2-4.5,4.4-4.6c6.5-0.4,12.2-1.6,17.5-3.8c5.2-2.2,9.9-5.3,14.2-9.6
		c0.2-0.2,0.5-0.2,0.7,0c4.3,4.2,9,7.3,14.2,9.6c5.3,2.2,11,3.5,17.5,3.8c2.5,0.1,4.4,2.2,4.4,4.6c0,1.2,0,2.2,0.1,3.2
		C86.8,39.1,87.1,52.5,82.6,64.8z"/>
	<path class="st0" d="M50,25.1c-13.7,0-24.9,11.2-24.9,24.9c0,13.7,11.2,24.9,24.9,24.9c13.7,0,24.9-11.2,24.9-24.9
		C74.9,36.3,63.7,25.1,50,25.1z M50,69.1c-10.5,0-19.1-8.5-19.1-19.1S39.5,30.9,50,30.9c10.5,0,19.1,8.5,19.1,19.1
		S60.5,69.1,50,69.1z"/>
	<path class="st0" d="M57.2,42.3L45.6,53.8l-3.1-3.1c-1.1-1.1-3-1.1-4.1,0c-1.1,1.1-1.1,3,0,4.1l5.2,5.2c0.6,0.6,1.3,0.9,2.1,0.9
		s1.5-0.3,2.1-0.9l13.7-13.7c1.1-1.1,1.1-3,0-4.1C60.2,41.1,58.3,41.1,57.2,42.3z"/>
</g>
</svg>
