<?xml version="1.0" encoding="utf-8"?>
<!-- Generator: Adobe Illustrator 21.1.0, SVG Export Plug-In . SVG Version: 6.00 Build 0)  -->
<svg version="1.1" id="Calque_1" xmlns="http://www.w3.org/2000/svg" xmlns:xlink="http://www.w3.org/1999/xlink" x="0px" y="0px"
	 viewBox="0 0 100 100" style="enable-background:new 0 0 100 100;" xml:space="preserve">
<style type="text/css">
	.st0{fill:#FFFFFF;}
</style>
<g>
	<path class="st0" d="M29.3,19.9c0,10.2,0,20.3,0,30.5c0,0.4-0.1,0.8,0.1,1c0.2,0.4,0.7,0.8,1,0.8c0.4,0,0.8-0.4,1.1-0.8
		c0.1-0.2,0.1-0.5,0.1-0.8c0-9.7,0-19.3,0-29c0-0.3,0-0.6,0-1c14.9,0,29.7,0,44.6,0c0,0.4,0,0.6,0,0.9c0,9.8,0,19.5,0,29.3
		c0,0.9,0.4,1.4,1.1,1.4s1.1-0.5,1.1-1.4c0-0.1,0-0.3,0-0.4c0-10,0-20.1,0-30.1c0-1.8-0.2-2.1-1.9-2.1c-15.2,0-30.4,0-45.6,0
		C29.6,18.4,29.3,18.7,29.3,19.9z"/>
	<path class="st0" d="M23.6,52.3c0.8,0,1.1-0.5,1.1-1.7c0-11.9,0-23.8,0-35.7c0-0.2,0-0.5,0-0.8c14.9,0,29.6,0,44.5,0
		c0,0.6,0,1.1,0,1.7c0,0.7,0.6,1.2,1.2,1.2s1-0.5,1.1-1.2c0-0.8,0-1.5,0-2.3c0-1.3-0.3-1.7-1.6-1.7c-15.2,0-30.5,0-45.7,0
		c-1.4,0-1.7,0.3-1.7,1.7c0,12.3,0,24.7,0,37C22.5,51.8,22.9,52.3,23.6,52.3z"/>
	<path class="st0" d="M36.5,40.6c0.2,0,0.3,0,0.5,0c10.8,0,21.6,0,32.4,0c0.5,0,1,0,1.4,0c0.6-0.1,1-0.5,0.9-1.1
		c-0.1-0.4-0.5-0.8-0.8-1.1c-0.2-0.1-0.5-0.1-0.8-0.1c-5.5,0-11.1,0-16.6,0l0,0c-3.1,0-6.2,0-9.3,0c-2.6,0-5.2,0-7.8,0
		c-0.8,0-1.3,0.4-1.3,1.1C35.2,40.1,35.7,40.6,36.5,40.6z"/>
	<path class="st0" d="M35.3,45.3c0.3,0.6,0.8,0.7,1.4,0.7c11.1,0,22.3,0,33.4,0c0.3,0,0.5,0,0.8,0c0.6-0.1,0.9-0.5,0.9-1.2
		c0-0.6-0.4-0.9-1-1c-0.2,0-0.4,0-0.6,0c-5.6,0-11.1,0-16.7,0l0,0c-1.7,0-3.4,0-5,0c-4,0-8,0-12,0C35.6,43.7,35,44.4,35.3,45.3z"/>
	<path class="st0" d="M40,27.6c-1.2,0-2.3,0-3.5,0c-0.8,0-1.3,0.4-1.3,1.1s0.4,1.1,1.3,1.1c0.2,0,0.5,0,0.7,0c4.3,0,8.5,0,12.8,0
		c1.3,0,2.6,0,4,0c0.6,0,1.1-0.4,1-1c0-0.4-0.4-0.8-0.7-1.1c-0.2-0.2-0.5-0.1-0.8-0.1c-2.8,0-5.5,0-8.3,0l0,0
		C43.5,27.6,41.7,27.6,40,27.6z"/>
	<path class="st0" d="M36.6,35.2c4.1,0,8.3,0,12.4,0c0.8,0,1.3-0.5,1.3-1.1c0-0.7-0.5-1.1-1.4-1.1c-2.1,0-4.2,0-6.2,0
		c-2.1,0-4.1,0-6.2,0c-0.9,0-1.3,0.4-1.3,1.1C35.3,34.8,35.7,35.2,36.6,35.2z"/>
	<path class="st0" d="M67.1,74c1.1-1.7,0.9-3.5-0.6-5c-2.9-2.9-5.8-5.8-8.7-8.7c-0.9-0.9-1.4-1-2-0.4c-0.5,0.5-0.4,1.2,0.4,2
		c2.9,2.9,5.7,5.7,8.6,8.6c0.8,0.8,0.9,1.7,0.3,2.4c-0.7,0.7-1.6,0.7-2.5-0.2c-0.6-0.6-1.2-1.2-1.8-1.8c-1-1-2-2.1-3.1-3.1
		c-0.6-0.6-1.2-0.6-1.7-0.1s-0.5,1.1,0.1,1.7c0.1,0.1,0.2,0.2,0.3,0.3c2.1,2.1,4.2,4.2,6.3,6.3c0.8,0.8,0.8,1.7,0.1,2.4
		c-0.7,0.6-1.6,0.6-2.4-0.2c-0.7-0.7-1.4-1.5-2.1-2.2c-1.4-1.4-2.8-2.9-4.3-4.2c-0.3-0.3-0.9-0.4-1.3-0.3c-0.3,0.1-0.6,0.6-0.6,0.9
		c0,0.4,0.3,0.8,0.5,1.1c1.8,1.9,3.7,3.7,5.5,5.6c0.5,0.5,0.6,1,0.3,1.6s-0.7,1.1-1.4,0.9c-0.5-0.1-1.1-0.4-1.5-0.8
		c-1.8-1.8-3.6-3.6-5.5-5.4c-0.3-0.3-0.9-0.4-1.3-0.3c-0.3,0.1-0.6,0.6-0.7,0.9c0,0.4,0.2,0.8,0.5,1.1c1.6,1.7,3.2,3.3,4.8,4.9
		c0.6,0.6,0.6,1.5,0,2.1s-1.5,0.7-2.1,0.1c-0.2-0.2-0.3-0.5-0.3-0.7c0.5-2.3-0.7-4.2-3-4.7c-0.4-0.1-0.6-0.3-0.7-0.7
		c-0.3-1.7-1.4-2.7-3.1-3.1c-0.5-0.1-0.7-0.3-0.8-0.8c-0.3-1.6-1.3-2.7-2.9-3c-0.6-0.1-0.8-0.4-1-1c-0.6-2.5-3.3-3.8-5.5-2.4
		c-1.2,0.8-2.4,2-3.1,3.2c-1.2,1.9-0.2,4.4,1.9,5.2c0.4,0.2,0.9,0.2,1.3,0.4c0.3,2,1.3,3.3,3.4,3.7c0.2,0,0.4,0.3,0.4,0.6
		c0.4,1.7,1.4,2.8,3.1,3.2c0.5,0.1,0.6,0.2,0.7,0.7c0.3,1.5,1.2,2.6,2.7,3s2.8,0,3.8-1.1c0.3-0.3,0.6-0.7,0.8-1
		c2.7,2.1,5.7,1.1,6.7-1.9c2.2,0.2,3.8-0.7,4.5-2.9c3.5,0.6,5.8-2.6,4.4-5.7c0.4-0.2,0.7-0.4,1-0.6C66.6,74.6,66.9,74.3,67.1,74z
		 M35.7,74.1c-0.3,0.2-0.6,0.4-1,0.5c-0.8-0.1-1.2-0.4-1.5-1C33,73,33,72.4,33.5,72c0.6-0.6,1.2-1.3,1.8-1.8
		c0.6-0.6,1.6-0.5,2.2,0.2c0.5,0.6,0.5,1.4-0.1,2.1C36.9,73,36.3,73.6,35.7,74.1z M39.5,77.9c-0.2,0.2-0.6,0.3-0.7,0.4
		c-1,0-1.5-0.3-1.7-0.9c-0.3-0.6-0.2-1.2,0.4-1.7c0.6-0.5,1.1-1.1,1.7-1.7c0.6-0.6,1.5-0.6,2.1,0s0.7,1.5,0.1,2.2
		C40.7,76.8,40.1,77.4,39.5,77.9z M43.2,81.8C43,82,42.7,82,42.6,82.1c-0.9,0.1-1.4-0.3-1.7-0.9s-0.2-1.2,0.3-1.7
		c0.6-0.6,1.2-1.2,1.8-1.8c0.6-0.5,1.5-0.5,2.1,0.1s0.6,1.4,0.1,2C44.5,80.5,43.8,81.2,43.2,81.8z M49,83.5
		c-0.6,0.8-1.4,1.5-2.1,2.2c-0.2,0.2-0.5,0.2-0.6,0.2c-0.9,0-1.4-0.3-1.7-0.9s-0.2-1.2,0.3-1.7c0.6-0.6,1.2-1.2,1.8-1.8
		c0.6-0.5,1.4-0.5,2,0C49.3,82.1,49.5,82.9,49,83.5z"/>
	<path class="st0" d="M86.6,78.5c-0.1-0.6-0.4-1-1.1-1s-1.5,0-2.2,0c-1,0-2,0-3,0c0-7,0-14,0-20.9c0.3,0,0.5-0.1,0.7-0.1
		c1.4,0,2.8,0,4.3,0c0.8,0,1.3-0.4,1.3-1.1c0-0.7-0.4-1.1-1.3-1.1c-2.1,0-4.2,0-6.2,0c-1.8,0-3.6,0-5.3,0c-1.3,0-1.6,0.3-1.6,1.6
		c0,0.4,0,0.8,0,1.2c-1.4,0-2.7,0-4,0c-0.3,0-0.7-0.2-0.9-0.5c-1.1-1.5-2-3-3.1-4.5c-0.9-1.2-2-1.9-3.5-1.9c-2.6,0-5.1,0-7.7,0
		c-1.1,0-2.3,0.3-2.9,1.2c-1.1,1.5-2.6,1.9-4.3,1.6c-0.2,0-0.4,0-0.6,0c-1.1,0-2.2,0-3.3,0c-2.7,0-4.9,1-6.7,2.9
		c-0.6,0.7-1.3,1-2.3,0.9c-1.4-0.1-2.8,0-4.2,0c-0.2,0-0.4,0-0.7-0.1c0-0.4,0-0.7,0-1c0-1-0.4-1.5-1.4-1.5c-3.9,0-7.8,0-11.7,0
		c-0.9,0-1.4,0.4-1.4,1.1c0,0.7,0.5,1.1,1.3,1.1c1.3,0,2.6,0,4,0c1,0,1,0,1,1c0,6.4,0,12.8,0,19.2c0,0.2,0,0.5-0.1,0.8
		c-1.7,0-3.3,0-4.9,0c-0.9,0-1.4,0.4-1.4,1.1s0.5,1.2,1.4,1.2s1.9,0,2.8,0c3,0,5.9,0,8.9,0c1,0,1.4-0.4,1.4-1.4c0-0.3,0-0.6,0-1
		c0.6,0,1,0,1.5,0c0.3,0,0.6,0,0.9,0c0.6-0.1,0.9-0.5,0.9-1.1s-0.4-1-1-1c-0.7-0.1-1.4,0-2.2,0c0-5.4,0-10.7,0-16c1.7,0,3.4-0.1,5,0
		c1.5,0.1,2.7-0.3,3.6-1.5c1-1.2,2.3-2.1,4-2.2c1.7-0.1,3.5,0,5.2,0c0,0.1,0.1,0.1,0.1,0.2c-0.4,0.4-0.8,0.7-1.2,1.1
		c-0.8,0.8-1.2,1.7-1.2,2.8c-0.1,1.8,0.9,3.4,2.5,4.2c1.6,0.7,3.5,0.4,4.8-0.8c1.2-1.2,2.4-2.4,3.6-3.5c0.3-0.3,0.9-0.5,1.3-0.5
		c1.2-0.1,2.4,0,3.7,0c0.8,0,1.3-0.4,1.3-1.1c0-0.7-0.5-1.1-1.3-1.1c-1.5,0-3,0-4.6,0c-0.5,0-1,0.3-1.4,0.6c-1.4,1.3-2.6,2.6-4,3.9
		c-1,1-2.2,1.1-3.1,0.2c-0.9-0.9-0.8-2.1,0.2-3.1c1.6-1.6,3.3-3.3,4.9-4.9c0.5-0.5,1-0.7,1.6-0.7c2.5,0,5,0,7.5,0
		c0.8,0,1.4,0.3,1.8,1c1.1,1.7,2.4,3.4,3.5,5.2c0.3,0.5,0.8,0.7,1.4,0.7c1.3,0,2.7,0,4,0c0.3,0,0.5,0,0.8,0c0,5.3,0,10.5,0,15.7
		c-1,0-1.8,0-2.7,0c-0.6,0-1.2,0-1.8,0c-0.6,0.1-1,0.5-1,1.1c0,0.7,0.4,1,1.1,1.1c0.4,0,0.9,0,1.3,0c1.1,0,2.1,0,3.2,0
		c0,0.3,0.1,0.4,0.1,0.6c-0.1,1.4,0.3,1.8,1.9,1.8c3.6,0,7.3,0,10.9,0c0.3,0,0.5,0,0.8,0C86.3,79.6,86.7,79.2,86.6,78.5z M25.7,71.6
		c0,1.7,0,3.4,0,5.2c0,0.5-0.1,0.7-0.7,0.7c-1,0-2,0-3,0c0-0.3,0-0.6,0-0.9c0-6.4,0-12.8,0-19.2c0-0.7,0.2-0.9,0.9-0.9
		c0.7,0.1,1.3,0,2,0c0.6,0,0.9,0.1,0.9,0.8C25.7,62.1,25.7,66.9,25.7,71.6z M78.1,77.5c-1.1,0-2.1,0-3.1,0c-0.1,0-0.3,0-0.5,0
		c0-7,0-13.9,0-20.9c1.2,0,2.4,0,3.6,0C78.1,63.6,78.1,70.5,78.1,77.5z"/>
</g>
</svg>
