<?xml version="1.0" encoding="utf-8"?>
<!-- Generator: Adobe Illustrator 21.1.0, SVG Export Plug-In . SVG Version: 6.00 Build 0)  -->
<svg version="1.1" id="Calque_1" xmlns="http://www.w3.org/2000/svg" xmlns:xlink="http://www.w3.org/1999/xlink" x="0px" y="0px"
	 viewBox="0 0 100 100" style="enable-background:new 0 0 100 100;" xml:space="preserve">
<style type="text/css">
	.st0{fill:#FFFFFF;}
</style>
<g>
	<path class="st0" d="M59.3,57.2c-1.5,1.9-2.9,3.7-4.3,5.6c-0.1,0.2-0.2,0.3-0.3,0.5c-1.8-2.8-3.5-5.5-5.2-8.1
		c-1.5-2.3-3.6-3.8-6.1-4.7c-0.2-0.1-0.5-0.2-0.6-0.1c-0.7,0.6-1.4,1.2-2.1,1.8c0.4,0.1,0.7,0.2,1.1,0.3c2.3,0.7,4.2,1.8,5.4,4
		c1.1,2,2.5,3.8,3.7,5.7c1.2,1.8,2.3,3.6,3.5,5.4c0.2-0.2,0.3-0.4,0.4-0.5c2-2.5,3.9-5.1,5.9-7.6c0.3-0.4,0.6-0.8,1-1.2
		c0.6-0.6,1.5-0.7,2.2-0.3c0.6,0.3,1,1.2,0.8,2c-0.1,0.5-0.4,1.1-0.7,1.5c-2.1,2.8-4.2,5.6-6.4,8.4c-0.8,1-1.5,2-2.3,3
		c-1.1,1.3-2.4,1.2-3.2-0.2c-2.1-3.5-4.2-7-6.2-10.5c-0.1-0.2-0.2-0.3-0.5-0.7c0,0.5,0,0.7,0,0.9c0,5.8,0,11.5,0,17.3
		c0,2.3-1,3.3-3.3,3.3c-4.9,0-9.9,0-14.8,0c-2,0-3-1-3-3c0-6,0-12,0.1-18.1c0-0.3,0-0.6,0-0.9c-0.3,0.2-0.4,0.4-0.4,0.6
		c-2.1,5-4.1,9.9-6.3,14.8c-0.3,0.7-0.8,1.3-1.4,1.7c-1.1,0.8-2.2,0.3-2.6-1c-0.3-1,0-1.9,0.4-2.8c1.9-4.7,3.7-9.5,5.7-14.2
		c1.6-3.8,4.2-6.5,8.1-7.9c0.3-0.1,0.7-0.2,1-0.4c-0.7-0.6-1.2-1.1-1.9-1.6c-0.1-0.1-0.5-0.1-0.7,0c-4.1,1.7-7.1,4.6-8.8,8.7
		c-2.2,5.4-4.3,10.9-6.4,16.3c0,0.7,0,1.4,0,2.1c0.1,0.3,0.2,0.5,0.3,0.8c0.6,1.4,1.5,2.5,3.1,2.8c1.9,0.4,4.1-0.7,5.1-2.7
		c0.6-1.2,1.1-2.5,1.6-3.8c0.2-0.4,0.3-0.7,0.5-1c0.1,2.3,0.1,4.5,0.1,6.7c0,3,2.2,5.2,5.2,5.2c5.3,0,10.6,0,15.8,0
		c0.3,0,0.6,0,0.9-0.1c2.6-0.6,4.1-2.6,4.2-5.3c0-2.9,0-5.7,0-8.6c0-0.2,0-0.5,0.1-0.9c0.9,1.5,1.6,2.8,2.4,4c0.2,0.4,0.6,0.7,0.9,1
		c1.9,1.3,4.4,0.9,6-1.1c1.6-2.1,3.2-4.2,4.9-6.4c1.3-1.7,2.6-3.4,3.9-5.1c1.5-2,1.5-4.8-0.1-6.3C64,54.7,61,54.9,59.3,57.2z"/>
	<path class="st0" d="M89,19.7c0-2.9-2.1-5-5-5c-16.6,0-33.2,0-49.8,0c-2.7,0-4.9,2.1-4.9,4.9c0,4.3,0,8.6,0,12.9
		c0,0.2,0,0.4,0.1,0.7c0.6-0.3,1.1-0.6,1.7-0.7c0.6-0.2,0.7-0.5,0.7-1.1c0-3.9,0-7.7,0-11.6c0-1.6,1-2.7,2.7-2.7
		c16.5,0,32.9,0,49.4,0c1.9,0,2.8,1,2.8,2.9c0,11.9,0,23.8,0,35.7c0,1.9-1,2.9-2.9,2.9c-4.5,0-8.9,0-13.4,0c-0.3,0-0.6,0-0.9,0
		c0,0.9,0,1.6,0,2.4c0.3,0,0.5,0,0.8,0c4.6,0,9.1,0,13.7,0c2.9,0,5-2.1,5-5C89,43.9,89,31.8,89,19.7z"/>
	<path class="st0" d="M34.6,51.2c4.8,0,8.6-3.7,8.7-8.5c0-4.7-3.7-8.5-8.4-8.6c-4.8,0-8.7,3.7-8.7,8.4C26.2,47.3,30,51.2,34.6,51.2z
		 M34.8,36.6c3.3,0,6,2.7,6.1,6.1c0,3.3-2.7,6.1-6,6.1s-6.1-2.7-6.2-6.1C28.7,39.4,31.5,36.6,34.8,36.6z"/>
	<path class="st0" d="M51.7,41c0.5-0.2,1-0.5,1.4-0.8s0.7-0.7,0.9-1.2s0.3-1,0.3-1.5l0,0c0-0.6-0.1-1.1-0.3-1.5
		c-0.2-0.5-0.5-0.9-0.8-1.2c-0.4-0.3-0.8-0.6-1.4-0.8c-0.5-0.2-1.1-0.3-1.8-0.3h-3v7.7h2.9C50.6,41.3,51.2,41.2,51.7,41z M49.1,35.6
		H50c0.6,0,1.1,0.2,1.5,0.5s0.6,0.8,0.6,1.4l0,0c0,0.6-0.2,1.1-0.6,1.4c-0.4,0.3-0.9,0.5-1.5,0.5h-0.9V35.6z"/>
	<polygon class="st0" points="61.5,35.5 61.5,33.7 55.4,33.7 55.4,41.3 61.6,41.3 61.6,39.5 57.4,39.5 57.4,38.3 61.1,38.3 
		61.1,36.6 57.4,36.6 57.4,35.5 	"/>
	<polygon class="st0" points="70.8,41.3 70.8,33.7 68.5,33.7 66.7,36.6 64.9,33.7 62.6,33.7 62.6,41.3 64.7,41.3 64.7,37 66.7,39.9 
		66.7,39.9 68.7,36.9 68.7,41.3 	"/>
	<path class="st0" d="M74.3,41.2c0.5,0.2,1,0.3,1.6,0.3s1.1-0.1,1.6-0.3s0.9-0.5,1.3-0.9s0.7-0.8,0.9-1.3c0.2-0.5,0.3-1,0.3-1.5l0,0
		c0-0.5-0.1-1.1-0.3-1.5c-0.2-0.5-0.5-0.9-0.9-1.3c-0.4-0.4-0.8-0.6-1.3-0.8s-1-0.3-1.6-0.3s-1.1,0.1-1.6,0.3s-0.9,0.5-1.3,0.9
		s-0.7,0.8-0.9,1.3c-0.2,0.5-0.3,1-0.3,1.5l0,0c0,0.5,0.1,1.1,0.3,1.5c0.2,0.5,0.5,0.9,0.9,1.3C73.4,40.7,73.8,41,74.3,41.2z
		 M74,37.5c0-0.3,0-0.5,0.1-0.8c0.1-0.2,0.2-0.5,0.4-0.7c0.2-0.2,0.4-0.3,0.6-0.4c0.2-0.1,0.5-0.2,0.8-0.2s0.6,0.1,0.8,0.2
		c0.2,0.1,0.4,0.3,0.6,0.5s0.3,0.4,0.4,0.7c0.1,0.2,0.1,0.5,0.1,0.8l0,0c0,0.3,0,0.5-0.1,0.8c-0.1,0.2-0.2,0.5-0.4,0.7
		c-0.2,0.2-0.4,0.3-0.6,0.4c-0.2,0.1-0.5,0.2-0.8,0.2s-0.6-0.1-0.8-0.2c-0.2-0.1-0.4-0.3-0.6-0.5s-0.3-0.4-0.4-0.7
		C74.1,38,74,37.8,74,37.5L74,37.5z"/>
</g>
</svg>
