<?xml version="1.0" encoding="utf-8"?>
<!-- Generator: Adobe Illustrator 22.0.1, SVG Export Plug-In . SVG Version: 6.00 Build 0)  -->
<svg version="1.1" id="Calque_1" xmlns="http://www.w3.org/2000/svg" xmlns:xlink="http://www.w3.org/1999/xlink" x="0px" y="0px"
	 viewBox="0 0 100 100" style="enable-background:new 0 0 100 100;" xml:space="preserve">
<style type="text/css">
	.st0{fill:#FFFFFF;}
</style>
<g id="c6WPDW.tif">
	<g>
		<path class="st0" d="M29.5,74.6c2.8,0,5.6,0,8.3,0c2,0,3.3,1.1,3.4,2.8c0.1,1.6-1,2.9-3,2.9c-6.5,0-13.1,0.3-19.5-0.3
			c-8.3-0.8-16-9.1-18-18.8c-1.9-9.4,0.5-17.3,7.1-23.7c0.9-0.9,1.4-1.7,1.2-3c-1.2-11.1,7.7-20.3,17.7-18.9
			c0.6,0.1,1.5-0.7,1.9-1.4c4.7-7.3,11-12,19.1-13.6c14.7-3,29.4,7.2,33,23c0.4,1.9,1.2,2.8,2.9,3.5c10.8,4.4,16.8,15.8,16.4,26.8
			c-0.5,13.4-9.4,24.3-20.9,26.1c-5.8,0.9-11.7,0.4-17.6,0.4c-1.8,0-2.9-1.4-2.8-3c0.1-1.6,1.3-2.6,3.1-2.7c4.4,0,8.9,0,13.3,0
			c14.9-0.1,24.5-18,17.2-32.1c-2.9-5.7-7.2-9.6-13.3-10.9c-1.9-0.4-2.6-1.8-2.9-3.8C74.8,17.3,68,9.1,58.7,6.5
			C48.3,3.7,37.6,8.6,32.2,18.7c-1.8,3.5-1.8,3.5-5.5,2.8c-8-1.5-14.2,5.5-12.3,14c0.5,2.3,0.1,3.7-1.7,5c-5.9,4.3-8.5,11.6-7,19.2
			c1.6,7.6,7.3,13.8,14.1,14.8C23,74.9,26.3,74.5,29.5,74.6C29.5,74.5,29.5,74.6,29.5,74.6z"/>
		<path class="st0" d="M46.8,47.6c-2.8,3.1-5.7,6.2-8.5,9.3c-0.5,0.5-1,1.1-1.5,1.5c-1.2,0.8-2.5,0.8-3.4-0.4
			c-0.9-1.1-0.9-2.4-0.1-3.6c0.3-0.4,0.6-0.7,0.9-1.1c4.4-4.8,8.8-9.6,13.3-14.4c2.1-2.2,3.1-2.2,5.2,0c4.4,4.7,8.8,9.5,13.2,14.2
			c0.2,0.2,0.4,0.5,0.7,0.7c1.2,1.5,1.2,3.1,0.1,4.2c-1.3,1.2-2.6,1-3.7-0.2c-2.5-2.6-5-5.3-7.4-8c-0.7-0.8-1.3-1.8-2-2.7
			c-0.2,0.1-0.4,0.3-0.6,0.4c0,0.6-0.1,1.3-0.1,1.9c0,15.3,0,30.5,0,45.8c0,0.1,0,0.3,0,0.4c0,2.7-0.9,4.1-2.7,4.1
			c-1.8,0-2.7-1.4-2.7-4.1c0-15,0-30,0-45c0-1,0-2,0-3C47.2,47.8,47,47.7,46.8,47.6z"/>
	</g>
</g>
</svg>
