<?xml version="1.0" encoding="utf-8"?>
<!-- Generator: Adobe Illustrator 21.1.0, SVG Export Plug-In . SVG Version: 6.00 Build 0)  -->
<svg version="1.1" id="Calque_1" xmlns="http://www.w3.org/2000/svg" xmlns:xlink="http://www.w3.org/1999/xlink" x="0px" y="0px"
	 viewBox="0 0 496 496" style="enable-background:new 0 0 496 496;" xml:space="preserve">
<style type="text/css">
	.st0{fill:#FFFFFF;}
</style>
<g>
	<g>
		<g>
			<path class="st0" d="M430.7,260.6H260.6c-3.5,0-6.3,2.8-6.3,6.3v52.4c-7.6-3.5-16.4-2.9-23.3,1.8l-33.4,22.2V235.4h37.8
				c3.5,0,6.3-2.8,6.3-6.3V65.3c0-3.5-2.8-6.3-6.3-6.3H65.3c-3.5,0-6.3,2.8-6.3,6.3v163.8c0,3.5,2.8,6.3,6.3,6.3h88.2v14.7
				c-3.5-1.6-7.3-2.4-11.2-2.1c-8.8,0.8-16.3,6.9-19.1,15.3c-10.5-5.9-23.7-2.2-29.6,8.3c-0.8,1.4-1.4,2.8-1.8,4.3
				c-3.9-2.2-8.3-3.1-12.7-2.7c-11.6,1.4-20.3,11.4-20.1,23.1v102.6c0,0,0,0.1,0,0.1c0,0,0,0.1,0,0.1v31.5c0,3.5,2.8,6.3,6.3,6.3
				h126c3.5,0,6.3-2.8,6.3-6.3v-28.4l56.7-42.5v70.9c0,3.5,2.8,6.3,6.3,6.3h170.1c3.5,0,6.3-2.8,6.3-6.3V266.9
				C437,263.4,434.2,260.6,430.7,260.6z M71.6,222.8V71.6h157.5v151.2h-31.5v-12.6c3.5,0,6.3-2.8,6.3-6.3V90.5
				c0-3.5-2.8-6.3-6.3-6.3h-94.5c-3.5,0-6.3,2.8-6.3,6.3v113.4c0,3.5,2.8,6.3,6.3,6.3h50.4v12.6H71.6z M191.3,96.8v88.6
				c-8.4-8.7-22.3-8.9-31-0.5c-3.5,3.4-5.8,7.9-6.5,12.7h-44.4V96.8L191.3,96.8L191.3,96.8z M185,424.4H71.6v-18.9H185V424.4z
				 M250.8,346.6c-0.2,0.2-0.4,0.4-0.7,0.5l0,0l-61,45.7H71.6v-96.5c-0.2-5.2,3.5-9.7,8.6-10.5c5.2-0.5,9.8,3.4,10.3,8.5
				c0,0.3,0,0.6,0,0.9v22h12.6v-33.5c-0.2-5.2,3.5-9.7,8.6-10.5c5.2-0.5,9.8,3.4,10.3,8.5c0,0.3,0,0.6,0,0.9V311h12.6v-39.8
				c-0.2-5.2,3.5-9.7,8.7-10.5c4.7-0.4,8.9,2.6,10.2,7.1v30.7h12.6v-97.6c0-5.2,4.2-9.4,9.4-9.4c5.2,0,9.4,4.2,9.4,9.4v154.3
				c0,3.5,2.8,6.3,6.3,6.3c1.2,0,2.5-0.4,3.5-1.1l43.2-28.8c4.2-3,10-2.5,13.7,1.1l0,0C255.3,336.7,254.9,343,250.8,346.6z
				 M424.4,424.4H266.9V273.2h157.5V424.4z"/>
		</g>
	</g>
	<g>
		<g>
			<path class="st0" d="M430.7,59H260.6c-3.5,0-6.3,2.8-6.3,6.3v163.8c0,3.5,2.8,6.3,6.3,6.3h170.1c3.5,0,6.3-2.8,6.3-6.3V65.3
				C437,61.8,434.2,59,430.7,59z M424.4,222.8H266.9V71.6h157.5V222.8z"/>
		</g>
	</g>
	<g>
		<g>
			<rect x="122" y="109.4" class="st0" width="56.7" height="12.6"/>
		</g>
	</g>
	<g>
		<g>
			<rect x="122" y="134.6" class="st0" width="56.7" height="12.6"/>
		</g>
	</g>
	<g>
		<g>
			<path class="st0" d="M367,126.7c9.6-10.1,9.2-26-0.8-35.6c-10.1-9.6-26-9.2-35.6,0.8c-9.3,9.7-9.3,25.1,0,34.8
				c-12.1,6.6-19.6,19.3-19.6,33.1v44.1c0,3.5,2.8,6.3,6.3,6.3h63c3.5,0,6.3-2.8,6.3-6.3v-44.1C386.6,146,379.1,133.4,367,126.7z
				 M348.8,96.8c7,0,12.6,5.6,12.6,12.6c0,7-5.6,12.6-12.6,12.6s-12.6-5.6-12.6-12.6C336.2,102.4,341.8,96.8,348.8,96.8z M374,197.6
				h-50.4v-37.8c0-13.9,11.3-25.2,25.2-25.2s25.2,11.3,25.2,25.2V197.6z"/>
		</g>
	</g>
	<g>
		<g>
			<path class="st0" d="M348.8,292.1c-31.3,0-56.7,25.4-56.7,56.7c0,31.3,25.4,56.7,56.7,56.7c31.3,0,56.7-25.4,56.7-56.7
				C405.5,317.5,380.1,292.1,348.8,292.1z M348.8,304.7c11.5,0,22.6,4.5,30.8,12.6H318C326.2,309.2,337.3,304.7,348.8,304.7z
				 M309,329.9h79.6c1.9,4,3.2,8.2,3.8,12.6h-87.2C305.8,338.1,307.1,333.9,309,329.9z M348.8,392.9c-11.5,0-22.6-4.5-30.8-12.6
				h61.6C371.4,388.4,360.3,392.9,348.8,392.9z M388.6,367.7H309c-1.9-4-3.2-8.2-3.8-12.6h87.2C391.8,359.5,390.5,363.7,388.6,367.7
				z"/>
		</g>
	</g>
	<g>
		<g>
			<rect x="122" y="159.8" class="st0" width="37.8" height="12.6"/>
		</g>
	</g>
</g>
</svg>
