<?xml version="1.0" encoding="utf-8"?>
<!-- Generator: Adobe Illustrator 21.1.0, SVG Export Plug-In . SVG Version: 6.00 Build 0)  -->
<svg version="1.1" id="Calque_1" xmlns="http://www.w3.org/2000/svg" xmlns:xlink="http://www.w3.org/1999/xlink" x="0px" y="0px"
	 viewBox="0 0 100 26.8" style="enable-background:new 0 0 100 26.8;" xml:space="preserve">
<style type="text/css">
	.st0{fill:#FFFFFF;}
	.st1{fill:#1E56A3;}
	.st2{fill:#706F6F;}
	.st3{fill:#EC9A02;}
	.st4{fill:#2058A4;}
</style>
<g>
	<path class="st1" d="M12.8,17.3c-0.9,0-1.6,0-2.3,0c-2.1,0-4-1.5-4.6-3.4c-0.4-1.5-0.5-3,0-4.5c0.6-1.7,1.8-2.7,3.6-3
		c0.5-0.1,1.1-0.2,1.6-0.2c0.2,0,0.2,0.1,0.2,0.2c0,1,0,1.9,0,2.9c0,0.2,0,0.2-0.2,0.2c-0.3,0-0.5,0.1-0.8,0.1
		c-0.8,0.2-1.3,0.8-1.5,1.6c-0.2,0.9,0,1.6,0.6,2.3c0.2,0.2,0.5,0.3,0.7,0.3c2.2,0,4.5,0,6.7,0c2.2,0,5,1.5,5.3,4.8
		c0.2,1.9-0.3,3.6-1.6,5c-0.9,0.9-2,1.3-3.3,1.5c-0.4,0.1-0.9,0.1-1.3,0.1c-0.2,0-0.3,0-0.3-0.3c0-0.8,0-1.5,0-2.3
		c0-0.2,0.1-0.3,0.3-0.4c0.8-0.3,1.4-0.7,1.9-1.4c0.5-0.7,0.6-1.5,0.4-2.3c-0.1-0.3-0.4-0.6-0.7-0.7c-0.5-0.3-1.1-0.3-1.7-0.4
		C14.9,17.3,13.8,17.3,12.8,17.3z"/>
	<path class="st2" d="M18.6,2.7c1.8,3.1,3.6,6.2,5.4,9.2c-0.1,0.1-0.2,0.1-0.3,0.1c-1.1,0-2.2,0-3.3,0c-0.2,0-0.3-0.1-0.4-0.2
		c-0.4-0.8-0.9-1.6-1.4-2.4c-0.4,0.7-0.8,1.3-1.2,2c-0.2,0.5-0.5,0.6-1,0.6c-1.1-0.1-2.1,0-3.2,0C14.9,8.8,16.8,5.8,18.6,2.7z"/>
	<path class="st3" d="M23.5,18.9c0.5,0,1,0,1.5,0c0.6,0,1.2,0,1.9,0c0.1,0,0.3,0,0.3,0.2c0.6,1,1.2,2,1.8,3.1c-0.4,0-0.7,0-1.1,0
		c-0.8,0-1.7,0-2.5,0c-0.1,0-0.3,0-0.3-0.2c-0.5-1-1.1-2-1.6-3C23.5,19,23.5,19,23.5,18.9z"/>
	<path class="st2" d="M12.5,18.9C11.9,20,11.3,21,10.7,22c-0.1,0.1-0.1,0.1-0.3,0.1c-1.1,0-2.3,0-3.4,0c0-0.1,0.1-0.2,0.1-0.3
		c0.5-0.9,1-1.8,1.4-2.6c0.1-0.1,0.1-0.2,0.3-0.2C10.1,18.9,11.3,18.9,12.5,18.9z"/>
	<g>
		<path class="st3" d="M61.8,13.3c0.7,0.5,1,1.1,0.7,2c-0.3,0.9-0.9,1.2-1.8,1.2c-1.5,0-2.9,0-4.4,0c-0.4,0-0.5-0.1-0.5-0.5
			c0-1.8,0-3.5,0-5.3c0-0.5,0.2-0.5,0.6-0.5c1.3,0,2.7,0,4,0c0.8,0,1.5,0.2,1.8,1C62.7,11.9,62.5,12.6,61.8,13.3z M57,13.3
			c0,0.7,0,1.2,0,1.7c0,0.3,0,0.5,0.4,0.5c1.1,0,2.2,0.1,3.3-0.1c0.5-0.1,0.9-0.3,0.8-0.8c-0.1-0.6-0.5-0.7-1-0.7
			c-0.7,0-1.4,0-2.1,0c-0.4,0-0.6-0.1-0.6-0.5c0-0.5,0.2-0.5,0.6-0.5c0.8,0,1.5,0,2.3,0c0.4,0,0.7-0.2,0.7-0.7
			c0-0.4-0.2-0.7-0.6-0.8c-0.5-0.1-1.1-0.1-1.6-0.1c-0.7,0-1.6-0.3-2,0.1C56.7,11.9,57.1,12.7,57,13.3z"/>
		<path class="st3" d="M44.9,14.8c0.6,0.6,1.1,1.1,1.7,1.7c-0.9,0.2-1.6,0.2-2.2-0.7c-0.6-1-1.5-1-2.5-0.9c-0.3,0-0.7,0.1-0.7-0.5
			c0-0.6,0.3-0.5,0.7-0.5c0.7,0,1.3,0,2,0c0.8,0,1.1-0.5,1.1-1.2c0.1-0.8-0.2-1.3-1-1.4c-1.1-0.1-2.1,0-3.2,0
			c-0.5,0-0.4,0.3-0.4,0.6c0,1.4,0,2.7,0,4.1c0,0.4-0.1,0.6-0.5,0.6c-0.4,0-0.6-0.1-0.6-0.6c0-1.7,0-3.4,0-5.1
			c0-0.5,0.1-0.6,0.6-0.6c1.3,0,2.5,0,3.8,0c1.2,0,1.9,0.4,2.2,1.3c0.4,1.1,0.2,2.2-0.7,2.9C45.1,14.6,45,14.7,44.9,14.8z"/>
		<path class="st1" d="M68.8,16.5c-0.7,0-1.4,0-2.2,0c-0.4,0-0.5-0.1-0.5-0.5c0-0.4,0.1-0.5,0.5-0.5c1.2,0,2.4,0,3.6,0
			c0.2,0,0.5,0,0.7-0.1c0.4-0.1,0.8-0.3,0.7-0.9c0-0.5-0.4-0.7-0.9-0.7c-0.9,0-1.8,0-2.7,0c-1.3,0-2.1-0.7-2.1-1.8
			c0-1.2,0.7-1.8,2-1.8c1.2,0,2.5,0,3.7,0c0.4,0,0.6,0,0.6,0.5c0,0.5-0.2,0.5-0.6,0.5c-1.2,0-2.4,0-3.6,0c-0.5,0-1.1,0.1-1.1,0.8
			c0,0.7,0.5,0.8,1.1,0.8c0.9,0,1.8,0,2.6,0c1.2,0,1.8,0.6,1.8,1.8c0,1.1-0.6,1.8-1.8,1.9C70.2,16.6,69.5,16.5,68.8,16.5z"/>
		<path class="st4" d="M77.4,16.5c-2.3,0-3.4-0.8-3.7-2.6c-0.4-2,1-3.6,3-3.6c0.6,0,1.3-0.1,1.9,0c1.7,0.2,2.8,1.5,2.7,3.4
			c-0.1,1.7-1.3,2.9-3,2.9C77.9,16.5,77.7,16.5,77.4,16.5z M77.5,15.5c1,0,2.1-0.1,2.5-1.3c0.3-0.8,0.2-1.7-0.4-2.3
			c-1.1-0.9-2.4-0.7-3.6-0.4c-0.7,0.2-1.1,0.8-1.2,1.6C74.6,14.7,75.5,15.5,77.5,15.5z"/>
		<path class="st3" d="M55.1,16.4c-1,0.3-1.5-0.1-1.8-0.9c-0.2-0.6-0.6-0.8-1.2-0.7c-0.7,0.1-1.4,0-2.1,0c0.4-1.3,1.4-0.6,2.3-0.9
			c-0.4-0.7-0.8-1.4-1.3-2.2c-0.8,1.4-1.6,2.6-2.3,3.9c-0.6,1.1-0.3,0.9-1.8,0.9c0.9-1.5,1.7-2.9,2.6-4.3c0.3-0.5,0.6-1.1,1-1.6
			c0.4-0.5,0.8-0.5,1.1,0C52.7,12.5,53.9,14.4,55.1,16.4z"/>
		<path class="st3" d="M38.5,16.5c-0.9,0.3-1.5,0-1.8-0.8c-0.2-0.7-0.7-0.8-1.3-0.8c-0.6,0.1-1.3,0-2,0c0.3-1.4,1.5-0.6,2.2-1
			c-0.4-0.7-0.8-1.4-1.3-2.2c-0.8,1.3-1.6,2.6-2.3,3.9c-0.4,0.7-0.8,1.1-1.7,0.8c0.7-1.2,1.4-2.4,2.2-3.7c0.4-0.8,0.9-1.5,1.4-2.3
			c0.3-0.5,0.8-0.5,1.1,0C36.2,12.5,37.3,14.4,38.5,16.5z"/>
		<path class="st4" d="M91.2,10.2c0.8,0,1.6,0,2.4,0c0.4,0,0.5,0.1,0.5,0.5c0,0.4-0.1,0.6-0.5,0.6c-0.6,0-1.4-0.3-1.7,0.1
			c-0.3,0.4-0.1,1.2-0.1,1.8c0,0.9,0,1.8,0,2.7c0,0.4-0.1,0.5-0.5,0.5c-0.4,0-0.6,0-0.6-0.5c0-1.3,0-2.6,0-3.9
			c0-0.7-0.2-0.9-0.9-0.8c-0.3,0-0.6,0-0.9,0c-0.5,0-0.6-0.1-0.6-0.6c0-0.5,0.3-0.5,0.6-0.5C89.7,10.2,90.5,10.2,91.2,10.2z"/>
		<path class="st4" d="M82.2,13.4c0-0.9,0-1.8,0-2.6c0-0.4,0.1-0.5,0.5-0.5c1.5,0,2.9,0,4.4,0c0.4,0,0.4,0.2,0.4,0.5
			c0,0.3,0,0.6-0.5,0.6c-1,0-2.1,0-3.1,0c-0.5,0-0.6,0.1-0.6,0.6c0,1.3,0,2.7,0,4c0,0.4,0,0.6-0.5,0.6c-0.4,0-0.6-0.1-0.6-0.6
			C82.2,15.1,82.2,14.3,82.2,13.4z"/>
	</g>
	<path class="st4" d="M85.7,13.9c-0.4,0-0.7,0-1.1,0c-0.3,0-0.6,0-0.6-0.5c0-0.4,0.2-0.6,0.6-0.5c0.7,0,1.4,0,2.1,0
		c0.4,0,0.5,0.1,0.5,0.5c0,0.4-0.1,0.6-0.5,0.5C86.4,13.9,86.1,13.9,85.7,13.9z"/>
</g>
</svg>
