<?xml version="1.0" encoding="utf-8"?>
<!-- Generator: Adobe Illustrator 21.1.0, SVG Export Plug-In . SVG Version: 6.00 Build 0)  -->
<svg version="1.1" id="Calque_1" xmlns="http://www.w3.org/2000/svg" xmlns:xlink="http://www.w3.org/1999/xlink" x="0px" y="0px"
	 viewBox="0 0 100 100" style="enable-background:new 0 0 100 100;" xml:space="preserve">
<style type="text/css">
	.st0{fill:#FFFFFF;}
</style>
<g>
	<path class="st0" d="M78,72.4c-0.4-1.1-1.4-1.6-2.7-1.6c-1.6,0-3.2,0-4.9,0c-0.9,0-1.4,0.4-1.4,1.2c0,0.7,0.5,1.1,1.4,1.1
		c1.5,0,3.1,0,4.6,0c0.3,0,0.6,0.2,0.9,0.3c-0.1,0.3-0.2,0.7-0.4,0.9c-2.9,2.9-5.8,5.8-8.7,8.7c-0.8,0.8-1.5,1.5-2.3,2.3
		c-0.5,0.5-0.9,0.5-1.4,0c-0.4-0.4-0.8-0.8-1.2-1.2c-3.3-3.3-6.5-6.5-9.8-9.8c-0.2-0.2-0.3-0.6-0.4-0.9c0.3-0.1,0.6-0.3,0.9-0.3
		c1.8,0,3.6,0,5.3,0c1.2,0,1.6-0.4,1.6-1.5c0-2.2,0-4.4,0-6.5l0,0c0-2.2,0-4.4,0-6.5c0-0.3,0-0.5-0.1-0.8c-0.2-0.6-0.6-0.8-1.1-0.8
		c-0.6,0.1-0.9,0.4-1,1c0,0.4,0,0.8,0,1.1c0,3.7,0,7.4,0,11c0,0.6-0.1,0.8-0.8,0.8c-1.3,0-2.6,0-4,0c-1.3,0-2.3,0.4-2.9,1.6
		c-0.5,1.1-0.1,2.5,0.8,3.4c3.6,3.6,7.2,7.3,10.9,10.9c1.5,1.5,3.5,1.5,5,0c1.8-1.8,3.7-3.7,5.5-5.5s3.7-3.7,5.5-5.5
		C78.4,74.8,78.5,73.6,78,72.4z"/>
	<path class="st0" d="M43.4,77.5c-0.4,0-0.9,0-1.3,0c-12.9,0-4.3,0-17.2,0c-0.3,0-0.6,0-0.9-0.1c0-0.4,0-0.7,0-1
		c0-20.4,0-40.7,0-61.1c0-1,0-1,1-1c14.2,0,28.4,0,42.6,0c0.3,0,0.6,0,1,0c0,0.6,0,1.1,0,1.6c0,13.2,0,35.8,0,49
		c0,0.4,0,0.7,0.1,1.1c0.3,0.8,1.3,1,1.8,0.3c0.2-0.3,0.3-0.7,0.3-1.1c0-4.4,0-18.2,0-22.6c0-9.5,0-19.1,0-28.6
		c0-1.7-0.2-1.9-1.9-1.9c-5.1,0-10.1,0-15.2,0c-10.2,0-20.3,0-30.5,0c-1.2,0-1.5,0.4-1.5,1.5c0,21.4,0,42.8,0,64.2
		c0,1.6,0.2,1.8,1.8,1.8c11.7,0,2,0,13.6,0c2.1,0,4.2,0,6.2,0c0.8,0,1.2-0.4,1.2-1.1C44.7,78,44.2,77.5,43.4,77.5z"/>
	<path class="st0" d="M62.7,43.6c-0.2,0-0.3,0-0.5,0c-9.5,0-19.1,0-28.6,0c-1.3,0-2.5,0-3.8,0c-0.6,0-1,0.2-1.1,0.8
		c-0.1,0.5,0,1,0.5,1.2c0.3,0.1,0.7,0.2,1,0.2c5.3,0,10.7,0,16,0l0,0c3.3,0,6.5,0,9.8,0c2.2,0,4.5,0,6.7,0c0.7,0,1.2-0.4,1.2-1.1
		C63.9,44.1,63.5,43.7,62.7,43.6z"/>
	<path class="st0" d="M62.9,52.6c0.5-0.1,0.9-0.4,1-0.9s-0.1-1-0.6-1.2c-0.3-0.1-0.6-0.1-1-0.1c-5.3,0-10.7,0-16,0l0,0
		c-3.4,0-6.8,0-10.2,0c-2.1,0-4.1,0-6.2,0c-0.8,0-1.3,0.4-1.2,1.1c0,0.6,0.5,1.1,1.2,1.1c0.3,0,0.5,0,0.8,0c10.2,0,20.4,0,30.6,0
		C61.8,52.7,62.4,52.7,62.9,52.6z"/>
	<path class="st0" d="M54.7,21.3c0-0.6-0.5-1.1-1.1-1.2c-0.1,0-0.3,0-0.4,0c-2.9,0-5.7,0-8.6,0c-1.8,0-3.6,0-5.4,0
		c-0.6,0-1.1,0.2-1.3,0.8c-0.2,0.8,0.3,1.4,1.2,1.4c2.4,0,4.8,0,7.2,0c0.6,0,1.2,0,1.8,0c1.8,0,3.7,0,5.5,0
		C54.2,22.4,54.7,21.9,54.7,21.3z"/>
	<path class="st0" d="M29.9,36.9c-0.8,0-1.3,0.4-1.3,1.1c0,0.7,0.4,1.1,1.3,1.1c0.1,0,0.1,0,0.2,0c4.7,0,9.4,0,14.1,0
		c0.9,0,1.4-0.5,1.4-1.2s-0.5-1.1-1.4-1.1c-2.4,0-4.7,0-7.1,0C34.7,36.9,32.3,36.8,29.9,36.9z"/>
	<path class="st0" d="M43,59.4c0.7,0,1.2-0.4,1.2-1c0-0.7-0.5-1.1-1.2-1.2c-0.1,0-0.2,0-0.2,0c-4.2,0-8.5,0-12.7,0
		c-0.9,0-1.4,0.4-1.4,1.1c0,0.7,0.5,1.1,1.4,1.1c2.1,0,4.2,0,6.3,0l0,0C38.6,59.4,40.8,59.4,43,59.4z"/>
	<path class="st0" d="M34.1,64c-1.4,0-2.7,0-4.1,0c-0.9,0-1.3,0.4-1.3,1.1s0.5,1.1,1.3,1.1c2.7,0,5.5,0,8.2,0c0.8,0,1.3-0.5,1.3-1.2
		s-0.5-1.1-1.3-1.1C36.9,64,35.5,64,34.1,64z"/>
	<path class="st0" d="M42.1,25.2c-0.8,0-1.2,0.5-1.2,1.1c0,0.7,0.4,1.1,1.3,1.1c1.4,0,2.7,0,4.1,0c1.4,0,2.7,0,4.1,0
		c0.8,0,1.3-0.4,1.3-1.1c0-0.6-0.5-1.1-1.3-1.1C47.6,25.2,44.9,25.2,42.1,25.2z"/>
</g>
</svg>
